<svg xmlns="http://www.w3.org/2000/svg" width="672" height="83.395" viewBox="0 0 672 83.395">
  <g id="Path_246" data-name="Path 246" fill="none">
    <path d="M660,83.395H105.158C98.53,83.395,93.158,80.261,0,7,0,3.133,5.373,0,12,0H660c6.627,0,12,3.133,12,7V76.4C672,80.261,666.627,83.395,660,83.395Z" stroke="none"/>
    <path d="M 660 80.39453887939453 C 665.4104614257812 80.39453887939453 669 77.98808288574219 669 76.39635467529297 L 669 6.998174667358398 C 669 5.406447410583496 665.4104614257812 2.999992847442627 660 2.999992847442627 L 12 2.999992847442627 C 7.735766410827637 2.999992847442627 4.602542400360107 4.494955539703369 3.466402769088745 5.907598495483398 C 51.26280975341797 43.48964309692383 73.91570281982422 60.97875595092773 86.7799072265625 70.23490142822266 C 93.16954803466797 74.83245086669922 97.4871826171875 77.64126586914062 100.367546081543 79.07426452636719 C 102.8257293701172 80.29735565185547 103.9470901489258 80.39453887939453 105.1577301025391 80.39453887939453 L 660 80.39453887939453 M 660 83.39453887939453 L 105.1577301025391 83.39453887939453 C 98.5302734375 83.39453887939453 93.15773010253906 80.26136016845703 0 6.998174667358398 C 0 3.133174657821655 5.37254524230957 -7.102272775227902e-06 12 -7.102272775227902e-06 L 660 -7.102272775227902e-06 C 666.62744140625 -7.102272775227902e-06 672 3.133174657821655 672 6.998174667358398 L 672 76.39635467529297 C 672 80.26136016845703 666.62744140625 83.39453887939453 660 83.39453887939453 Z" stroke="none" fill="#000"/>
  </g>
</svg>
