<svg xmlns="http://www.w3.org/2000/svg" width="22" height="27" viewBox="0 0 22 27">
  <path id="icons8_strategy" d="M16,2a2.855,2.855,0,0,0-2.594,2H5V29H27V4H18.594A2.855,2.855,0,0,0,16,2Zm0,2a.982.982,0,0,1,1,1V6h3V8H12V6h3V5A.982.982,0,0,1,16,4ZM7,6h3v4H22V6h3V27H7Zm13,5-2,2h1v1h2V13h1Zm-9.594,2L9,14.438,10.094,15.5,9,16.594,10.406,18,11.5,16.906,12.594,18,14,16.563,12.906,15.5,14,14.406,12.594,13,11.5,14.094ZM20,15a1,1,0,1,0,1,1A1,1,0,0,0,20,15Zm-2.219,1.813-5.875,4.875,1.281,1.531,5.875-4.875ZM19.406,20,18,21.438,19.094,22.5,18,23.594,19.438,25,20.5,23.938,21.594,25,23,23.563,21.938,22.5,23,21.406,21.594,20,20.5,21.094ZM11,23a1,1,0,1,0,1,1A1,1,0,0,0,11,23Z" transform="translate(-5 -2)" fill="#707070"/>
</svg>
