<svg xmlns="http://www.w3.org/2000/svg" width="29.91" height="31.93" viewBox="0 0 29.91 31.93">
  <g id="Group_50" data-name="Group 50" transform="translate(0 0)">
    <path id="icons8_user_groups" d="M11.225,6a3.4,3.4,0,1,0,3.4,3.4A3.413,3.413,0,0,0,11.225,6Zm8.74,0a3.4,3.4,0,1,0,3.4,3.4A3.413,3.413,0,0,0,19.965,6Zm-8.74,1.942A1.457,1.457,0,1,1,9.769,9.4,1.443,1.443,0,0,1,11.225,7.942Zm8.74,0A1.457,1.457,0,1,1,18.509,9.4,1.443,1.443,0,0,1,19.965,7.942ZM6.856,11.827a3.863,3.863,0,0,0-2.7,6.646A4.89,4.89,0,0,0,2,22.509H3.942a2.913,2.913,0,0,1,5.827,0h1.942a4.89,4.89,0,0,0-2.155-4.036,3.863,3.863,0,0,0-2.7-6.646Zm4.856,10.682a4.879,4.879,0,0,0-.971,2.913h1.942a2.913,2.913,0,1,1,5.827,0h1.942A4.861,4.861,0,0,0,18.3,21.386a3.885,3.885,0,1,0-5.4,0A4.895,4.895,0,0,0,11.711,22.509Zm7.769,0h1.942a2.913,2.913,0,0,1,5.827,0h1.942a4.89,4.89,0,0,0-2.155-4.036,3.885,3.885,0,1,0-5.4,0A4.89,4.89,0,0,0,19.48,22.509ZM6.856,13.769a1.942,1.942,0,1,1-1.942,1.942A1.927,1.927,0,0,1,6.856,13.769Zm17.48,0a1.942,1.942,0,1,1-1.942,1.942A1.927,1.927,0,0,1,24.335,13.769ZM15.6,16.682a1.942,1.942,0,1,1-1.942,1.942A1.927,1.927,0,0,1,15.6,16.682Z" transform="translate(-2 6.508)" fill="#707070"/>
    <path id="icons8_inquiry" d="M41.865,4a4.546,4.546,0,0,0-4.532,4.532V9.665H39.6V8.532a2.248,2.248,0,0,1,2.266-2.266,2.216,2.216,0,0,1,2.266,2.266,2.072,2.072,0,0,1-1.2,2.018c-.367.252-.779.5-1.2.814a2.18,2.18,0,0,0-.991,1.7V14.2H43v-.991c.013-.009,0,.013.071-.035.212-.159.651-.412,1.133-.744a4.712,4.712,0,0,0,2.2-3.895A4.543,4.543,0,0,0,41.865,4Zm0,11.9a1.7,1.7,0,1,0,1.7,1.7A1.7,1.7,0,0,0,41.865,15.9Z" transform="translate(-16.487 -4)" fill="#707070"/>
  </g>
</svg>
