<svg xmlns="http://www.w3.org/2000/svg" width="47.2" height="57.928" viewBox="0 0 47.2 57.928">
  <path id="icons8_note_taking_2" d="M28.6,2c-2.7,0-4.593,1.917-5.544,4.291H5V59.928H52.2V6.291H34.144C33.193,3.917,31.3,2,28.6,2Zm0,4.291a2.111,2.111,0,0,1,2.145,2.145v2.145h6.436v4.291H20.018V10.582h6.436V8.436A2.111,2.111,0,0,1,28.6,6.291ZM9.291,10.582h6.436v8.582H41.473V10.582h6.436V55.637H9.291ZM26.455,25.6V41.875l-4.92-4.919L18.5,39.99l10.1,10.1,10.1-10.1-3.034-3.034-4.92,4.919V25.6Z" transform="translate(-5 -2)" fill="#00a900"/>
</svg>
