<svg xmlns="http://www.w3.org/2000/svg" width="24" height="22" viewBox="0 0 24 22">
  <path id="icons8_sales_performance" d="M21.5,5a10.6,10.6,0,0,0-4.312.813,4.6,4.6,0,0,0-1.5,1.031A2.461,2.461,0,0,0,15,8.5v4.406c-.062-.031-.121-.062-.187-.094A10.606,10.606,0,0,0,10.5,12a10.606,10.606,0,0,0-4.312.813,4.6,4.6,0,0,0-1.5,1.031A2.461,2.461,0,0,0,4,15.5v8a2.457,2.457,0,0,0,.719,1.656,4.642,4.642,0,0,0,1.5,1.031A10.6,10.6,0,0,0,10.5,27a10.6,10.6,0,0,0,4.281-.812,4.643,4.643,0,0,0,1.5-1.031A2.457,2.457,0,0,0,17,23.5v-.437c.078.039.137.09.219.125A10.594,10.594,0,0,0,21.5,24a10.6,10.6,0,0,0,4.281-.812,4.643,4.643,0,0,0,1.5-1.031A2.457,2.457,0,0,0,28,20.5V8.5a2.461,2.461,0,0,0-.687-1.656,4.6,4.6,0,0,0-1.5-1.031A10.6,10.6,0,0,0,21.5,5Zm0,2a8.737,8.737,0,0,1,3.469.656,2.931,2.931,0,0,1,.875.563C26,8.387,26,8.453,26,8.5s0,.113-.156.281a2.931,2.931,0,0,1-.875.563A8.737,8.737,0,0,1,21.5,10a8.736,8.736,0,0,1-3.469-.656,2.929,2.929,0,0,1-.875-.562C17,8.613,17,8.547,17,8.5s0-.113.156-.281a2.929,2.929,0,0,1,.875-.562A8.736,8.736,0,0,1,21.5,7ZM17,11.094c.063.031.121.063.188.094A10.6,10.6,0,0,0,21.5,12a10.6,10.6,0,0,0,4.313-.812c.066-.031.125-.062.188-.094V12.5c0,.051,0,.144-.156.313a2.879,2.879,0,0,1-.875.563A8.943,8.943,0,0,1,21.5,14a8.942,8.942,0,0,1-3.469-.625,2.876,2.876,0,0,1-.875-.562C17,12.644,17,12.551,17,12.5ZM10.5,14a8.737,8.737,0,0,1,3.469.656,2.931,2.931,0,0,1,.875.563c.156.168.156.234.156.281s0,.113-.156.281a2.933,2.933,0,0,1-.875.563A8.737,8.737,0,0,1,10.5,17a8.737,8.737,0,0,1-3.469-.656,2.931,2.931,0,0,1-.875-.562C6,15.613,6,15.547,6,15.5s0-.113.156-.281a2.929,2.929,0,0,1,.875-.562A8.737,8.737,0,0,1,10.5,14ZM17,15.063c.078.039.137.09.219.125A10.594,10.594,0,0,0,21.5,16a10.6,10.6,0,0,0,4.281-.812c.082-.035.141-.086.219-.125V16.5c0,.051,0,.145-.156.313a2.879,2.879,0,0,1-.875.563A8.943,8.943,0,0,1,21.5,18a8.942,8.942,0,0,1-3.469-.625,2.876,2.876,0,0,1-.875-.562C17,16.645,17,16.551,17,16.5ZM6,18.094c.063.031.121.063.188.094A10.6,10.6,0,0,0,10.5,19a10.6,10.6,0,0,0,4.313-.812c.066-.031.125-.062.188-.094V19.5c0,.051,0,.145-.156.313a2.879,2.879,0,0,1-.875.563A8.943,8.943,0,0,1,10.5,21a8.943,8.943,0,0,1-3.469-.625,2.878,2.878,0,0,1-.875-.562C6,19.645,6,19.551,6,19.5Zm11,.969c.078.039.137.09.219.125A10.594,10.594,0,0,0,21.5,20a10.6,10.6,0,0,0,4.281-.812c.082-.035.141-.086.219-.125V20.5c0,.051,0,.145-.156.313a2.879,2.879,0,0,1-.875.563A8.943,8.943,0,0,1,21.5,22a8.942,8.942,0,0,1-3.469-.625,2.876,2.876,0,0,1-.875-.562C17,20.645,17,20.551,17,20.5Zm-11,3c.078.039.137.09.219.125A10.6,10.6,0,0,0,10.5,23a10.6,10.6,0,0,0,4.281-.812c.082-.035.141-.086.219-.125V23.5c0,.051,0,.145-.156.313a2.879,2.879,0,0,1-.875.563A8.943,8.943,0,0,1,10.5,25a8.943,8.943,0,0,1-3.469-.625,2.878,2.878,0,0,1-.875-.562C6,23.645,6,23.551,6,23.5Z" transform="translate(-4 -5)" fill="#707070"/>
</svg>
